<svg width="20" height="20" viewBox="0 0 20 20" fill="none" xmlns="http://www.w3.org/2000/svg">
<path d="M13.125 1.875V3.49125L10.625 5.99125V0.625H9.375V5.99125L6.875 3.49125V1.875H5.625V11.875C5.62675 12.926 6.00658 13.9413 6.6951 14.7354C7.38361 15.5295 8.33484 16.0493 9.375 16.2V18.75H10.625V16.2C11.6652 16.0493 12.6164 15.5295 13.3049 14.7354C13.9934 13.9413 14.3732 12.926 14.375 11.875V1.875H13.125ZM9.375 14.9369C8.66968 14.7919 8.03591 14.4083 7.58051 13.8505C7.12511 13.2928 6.87594 12.5951 6.875 11.875V10.2587L9.375 12.7587V14.9369ZM9.375 10.9913L6.875 8.49125V5.25875L9.375 7.75875V10.9913ZM10.625 7.75875L13.125 5.25875V8.49125L10.625 10.9913V7.75875ZM10.625 14.9369V12.7587L13.125 10.2587V11.875C13.1241 12.5951 12.8749 13.2928 12.4195 13.8505C11.9641 14.4083 11.3303 14.7919 10.625 14.9369Z" fill="#00B3B3"/>
</svg>
