<svg width="20" height="20" viewBox="0 0 20 20" fill="none" xmlns="http://www.w3.org/2000/svg">
<path d="M8.33366 8.33335C8.33366 8.16854 8.28479 8.00742 8.19322 7.87038C8.10165 7.73334 7.9715 7.62653 7.81923 7.56345C7.66696 7.50038 7.4994 7.48388 7.33775 7.51603C7.1761 7.54819 7.02762 7.62755 6.91107 7.7441C6.79453 7.86064 6.71516 8.00913 6.68301 8.17078C6.65085 8.33243 6.66736 8.49999 6.73043 8.65226C6.7935 8.80453 6.90031 8.93468 7.03735 9.02625C7.17439 9.11781 7.33551 9.16669 7.50033 9.16669C7.72134 9.16669 7.9333 9.07889 8.08958 8.92261C8.24586 8.76633 8.33366 8.55437 8.33366 8.33335ZM12.0837 11.7167C11.989 11.6612 11.8844 11.625 11.7758 11.6101C11.6671 11.5952 11.5566 11.6018 11.4506 11.6297C11.3445 11.6576 11.245 11.7061 11.1577 11.7725C11.0704 11.8389 10.9971 11.9219 10.942 12.0167C10.8474 12.183 10.7104 12.3213 10.545 12.4175C10.3796 12.5137 10.1917 12.5644 10.0003 12.5644C9.80898 12.5644 9.62105 12.5137 9.45564 12.4175C9.29024 12.3213 9.15327 12.183 9.05866 12.0167C9.00353 11.9219 8.93022 11.8389 8.84295 11.7725C8.75568 11.7061 8.65617 11.6576 8.5501 11.6297C8.44404 11.6018 8.33352 11.5952 8.22488 11.6101C8.11624 11.625 8.01161 11.6612 7.917 11.7167C7.72639 11.8266 7.58699 12.0075 7.52923 12.2198C7.47146 12.4321 7.50002 12.6587 7.60866 12.85C7.85037 13.2707 8.19875 13.6202 8.61867 13.8632C9.03858 14.1062 9.51516 14.2342 10.0003 14.2342C10.4855 14.2342 10.9621 14.1062 11.382 13.8632C11.8019 13.6202 12.1503 13.2707 12.392 12.85C12.5006 12.6587 12.5292 12.4321 12.4714 12.2198C12.4137 12.0075 12.2743 11.8266 12.0837 11.7167ZM12.5003 7.50002C12.3355 7.50002 12.1744 7.54889 12.0374 7.64046C11.9003 7.73203 11.7935 7.86218 11.7304 8.01445C11.6674 8.16672 11.6509 8.33428 11.683 8.49593C11.7152 8.65758 11.7945 8.80607 11.9111 8.92261C12.0276 9.03915 12.1761 9.11852 12.3378 9.15068C12.4994 9.18283 12.667 9.16633 12.8192 9.10325C12.9715 9.04018 13.1017 8.93337 13.1932 8.79633C13.2848 8.65929 13.3337 8.49817 13.3337 8.33335C13.3337 8.11234 13.2459 7.90038 13.0896 7.7441C12.9333 7.58782 12.7213 7.50002 12.5003 7.50002ZM10.0003 1.66669C8.35215 1.66669 6.74099 2.15543 5.37058 3.07111C4.00017 3.98679 2.93206 5.28827 2.30133 6.81099C1.6706 8.33371 1.50558 10.0093 1.82712 11.6258C2.14866 13.2423 2.94234 14.7271 4.10777 15.8926C5.27321 17.058 6.75807 17.8517 8.37458 18.1732C9.99109 18.4948 11.6666 18.3297 13.1894 17.699C14.7121 17.0683 16.0136 16.0002 16.9292 14.6298C17.8449 13.2594 18.3337 11.6482 18.3337 10C18.3337 8.90567 18.1181 7.82204 17.6993 6.81099C17.2805 5.79994 16.6667 4.88129 15.8929 4.10746C15.1191 3.33364 14.2004 2.71981 13.1894 2.30102C12.1783 1.88224 11.0947 1.66669 10.0003 1.66669ZM10.0003 16.6667C8.44809 16.6734 6.94216 16.1382 5.74226 15.1535C4.54235 14.1687 3.72368 12.7962 3.42743 11.2724C3.13117 9.74871 3.37591 8.16937 4.11944 6.80678C4.86296 5.44418 6.05866 4.38375 7.50033 3.80835C7.49176 3.92764 7.49176 4.0474 7.50033 4.16669C7.50033 4.82973 7.76372 5.46561 8.23256 5.93445C8.7014 6.4033 9.33729 6.66669 10.0003 6.66669C10.2213 6.66669 10.4333 6.57889 10.5896 6.42261C10.7459 6.26633 10.8337 6.05437 10.8337 5.83335C10.8337 5.61234 10.7459 5.40038 10.5896 5.2441C10.4333 5.08782 10.2213 5.00002 10.0003 5.00002C9.77932 5.00002 9.56735 4.91222 9.41107 4.75594C9.25479 4.59966 9.167 4.3877 9.167 4.16669C9.167 3.94567 9.25479 3.73371 9.41107 3.57743C9.56735 3.42115 9.77932 3.33335 10.0003 3.33335C11.7684 3.33335 13.4641 4.03573 14.7144 5.28598C15.9646 6.53622 16.667 8.23191 16.667 10C16.667 11.7681 15.9646 13.4638 14.7144 14.7141C13.4641 15.9643 11.7684 16.6667 10.0003 16.6667Z" fill="#00B3B3"/>
</svg>
