<svg width="25" height="15" viewBox="0 0 25 15" fill="none" xmlns="http://www.w3.org/2000/svg">
<path d="M24 8.5C24.5523 8.5 25 8.05228 25 7.5C25 6.94772 24.5523 6.5 24 6.5V8.5ZM-0.707108 6.79289C-1.09763 7.18342 -1.09763 7.81658 -0.707108 8.20711L5.65685 14.5711C6.04738 14.9616 6.68054 14.9616 7.07107 14.5711C7.46159 14.1805 7.46159 13.5474 7.07107 13.1569L1.41421 7.5L7.07107 1.84315C7.46159 1.45262 7.46159 0.819457 7.07107 0.428932C6.68054 0.0384078 6.04738 0.0384078 5.65685 0.428932L-0.707108 6.79289ZM24 6.5H0V8.5H24V6.5Z" fill="#7C7C7C"/>
</svg>
