<svg width="20" height="20" viewBox="0 0 20 20" fill="none" xmlns="http://www.w3.org/2000/svg">
<path d="M5.4906 18.1927C4.57261 17.1495 3.65466 16.0646 3.07046 14.7711C2.48631 13.3941 2.31939 11.8085 2.61149 10.3064C2.90358 8.80425 3.57118 7.38554 4.53091 6.1755C4.44747 7.21867 4.823 8.30353 5.53234 9.09635C5.11506 7.09349 5.78269 4.92371 7.11792 3.33813C8.45315 1.75254 10.2891 0.709333 12.2085 0C11.2488 1.00143 11.1236 2.58701 11.4992 3.92228C11.8747 5.25751 12.6675 6.42585 13.3769 7.6359C14.0862 8.84595 14.7538 10.0977 14.7956 11.4747C15.1711 10.7654 15.5884 10.056 15.8387 9.26323C16.0891 8.47041 16.2143 7.6359 16.0056 6.84309C16.7567 7.76108 17.174 8.67903 17.3826 9.84738C17.5912 11.0157 17.5495 12.2258 17.4244 13.3941C17.2574 14.6876 16.9236 16.0229 16.2143 17.1077C15.3798 18.4013 14.0445 19.3192 12.5841 19.8199C9.99703 20.279 7.45172 19.9034 5.4906 18.1927Z" fill="#FFD15C"/>
<path d="M8.66211 19.7365C12.0836 21.0718 15.4635 17.0243 13.5858 13.8948C13.5858 13.8531 13.544 13.8531 13.544 13.8114C13.711 15.5222 13.2937 16.7739 12.5009 17.4833C12.9181 16.4819 12.626 15.3135 12.1253 14.3121C11.6246 13.3524 10.9153 12.4762 10.3728 11.5582C9.83038 10.5985 9.41314 9.51358 9.6635 8.42871C8.66207 9.17978 7.95273 10.3064 7.66064 11.5164C7.36854 12.7265 7.53546 14.0618 8.07791 15.1884C7.45202 14.7294 6.99304 13.9783 6.9513 13.1855C6.28367 13.9783 5.86643 15.0214 5.90814 16.0646C5.90817 17.6919 7.20166 19.1523 8.66211 19.7365Z" fill="#F3705A"/>
</svg>
