<svg width="20" height="20" viewBox="0 0 20 20" fill="none" xmlns="http://www.w3.org/2000/svg">
<g clip-path="url(#clip0)">
<path d="M8.04004 13.1074L7.54871 13.5997L6.97433 14.171L6.75331 14.3937L5.60631 13.2464L6.89202 11.9595L8.04004 13.1074Z" fill="#5D6D7E"/>
<path d="M4.43779 13.2393L0.481787 17.1955C0.184285 17.4916 -0.000522137 17.9037 0.000181198 18.3568C0.000181198 18.8108 0.184089 19.2229 0.481787 19.52C0.778391 19.8167 1.18949 20 1.64351 20C2.09731 20 2.50801 19.8165 2.80552 19.5186L6.76172 15.5629L4.43779 13.2393Z" fill="#F15540"/>
<path d="M4.9834 13.786L4.66219 13.4639L0.705502 17.4206C0.454994 17.6707 0.317885 18.0029 0.318119 18.3569C0.318119 18.712 0.455424 19.0452 0.705502 19.2952C0.750502 19.3388 0.808705 19.3609 0.866596 19.3609C0.925112 19.3609 0.983393 19.3388 1.02788 19.2943C1.1164 19.2051 1.1164 19.0619 1.02788 18.9735C0.863197 18.8093 0.772572 18.5893 0.772572 18.3564C0.772377 18.1244 0.862689 17.9064 1.02718 17.7422L4.9834 13.786Z" fill="#FFA184"/>
<path d="M6.76156 15.5626L4.43783 13.2389L4.61174 13.065C4.71585 12.96 4.85936 12.896 5.01815 12.896C5.17784 12.896 5.32124 12.9599 5.42526 13.0636L6.93598 14.5757C7.03988 14.6784 7.10449 14.8226 7.10449 14.9818C7.10449 15.1401 7.03988 15.2854 6.93598 15.3882L6.76156 15.5626Z" fill="#34495E"/>
<path d="M19.999 7.42813C19.999 3.32643 16.6732 0 12.5709 0C8.46806 0 5.14241 3.32643 5.14272 7.42813C5.14253 11.5312 8.46853 14.8566 12.5709 14.8579C16.6732 14.8566 19.999 11.5312 19.999 7.42813Z" fill="#34495E"/>
<path d="M12.5718 14.0529C8.9142 14.0529 5.94781 11.0868 5.94781 7.42795C5.94781 3.77031 8.91424 0.804199 12.5718 0.804199C16.2297 0.804199 19.1963 3.77031 19.1963 7.42795C19.1962 11.0868 16.2301 14.0529 12.5718 14.0529Z" fill="#5D6D7E"/>
<path d="M12.5714 13.5224C9.20659 13.5224 6.47758 10.7946 6.47758 7.4281C6.47758 4.06367 9.20659 1.33447 12.5714 1.33447C15.9365 1.33447 18.665 4.06371 18.665 7.4281C18.665 10.7945 15.9369 13.5224 12.5714 13.5224Z" fill="#E6EAEE"/>
<path d="M12.4117 2.33437C12.5152 2.18078 12.6936 2.08457 12.8897 2.09558C13.7311 2.14668 14.5258 2.3834 15.2525 2.80508C15.5082 2.95488 15.5956 3.28489 15.4472 3.54098C15.2979 3.7954 14.9676 3.88567 14.7128 3.73458C14.1334 3.40028 13.4993 3.21028 12.8266 3.16969C12.5311 3.1543 12.3039 2.8991 12.3224 2.6041C12.3256 2.5018 12.36 2.41008 12.4117 2.33437Z" fill="white"/>
<path d="M15.8618 4.10193C15.89 4.05884 15.9273 4.01923 15.9686 3.98494C16.1995 3.79654 16.5376 3.83333 16.7244 4.06314C17.2733 4.73725 17.651 5.54616 17.8175 6.40675C18.0147 7.42867 17.9117 8.47477 17.5198 9.43415C17.4055 9.71044 17.0915 9.84005 16.8173 9.72716C16.5419 9.61536 16.4112 9.30227 16.5239 9.02594C16.8363 8.26152 16.9174 7.42593 16.7588 6.61054C16.6286 5.92362 16.327 5.27803 15.8889 4.74084C15.7369 4.55393 15.7326 4.29092 15.8618 4.10193Z" fill="white"/>
</g>
<defs>
<clipPath id="clip0">
<rect width="20" height="20" fill="white" transform="matrix(-1 0 0 1 20 0)"/>
</clipPath>
</defs>
</svg>
